<svg width="269" height="70" viewBox="0 0 269 70" fill="none" xmlns="http://www.w3.org/2000/svg">
<g clip-path="url(#clip0_99_157)">
<path fill-rule="evenodd" clip-rule="evenodd" d="M38.044 5.64232C38.3171 3.20288 36.5876 1.0001 34.1482 0.72703C31.7087 0.435753 29.5059 2.18341 29.2329 4.62285C28.9052 7.40818 29.3603 10.7396 29.9429 14.1621C31.5631 14.6537 33.1287 15.3637 34.5851 16.2011C36.1507 12.5055 37.6799 8.84636 38.044 5.64232ZM55.1747 16.3467C54.2098 14.0893 51.5883 13.0698 49.3309 14.0347C46.3636 15.3272 43.287 17.8577 40.1921 20.461C41.3573 21.6079 42.4495 22.9004 43.378 24.3022C46.8915 23.8653 50.2594 23.3373 52.8627 22.2086C55.1201 21.2074 56.1577 18.5859 55.1747 16.3467ZM47.6925 4.4408C45.7264 2.98442 42.9411 3.38493 41.4847 5.35104C39.2637 8.33663 37.7709 12.7968 36.1507 17.1477C36.6968 17.5118 37.2066 17.8759 37.6981 18.2582C38.0622 18.5495 38.4445 18.859 38.8268 19.1684C42.5406 16.3649 46.4 13.6342 48.621 10.6486C50.0773 8.68252 49.6586 5.89719 47.6925 4.4408Z" fill="white"/>
<path d="M39.2442 40.0857C37.8788 41.5603 36.4224 42.9257 34.875 44.2546C32.7086 46.1297 30.5059 47.9502 28.2667 49.6979C25.8636 48.2233 24.1342 47.4769 23.8429 47.8592C23.588 48.2051 24.5893 49.4794 26.3916 51.136C20.3476 55.6326 13.9577 59.6013 7.09448 62.8599C6.0204 63.3697 4.8917 63.7338 3.78121 64.1343C3.48993 64.2435 3.18045 64.2435 3.05302 64.2617C1.30536 64.4619 0.777419 63.9886 0.850238 62.3866C1.0687 57.3985 2.6161 52.7199 4.21813 48.0594C4.65504 46.7851 5.11016 45.5108 5.58348 44.2364C8.00472 45.711 9.73417 46.4756 10.0254 46.0933C10.3349 45.6746 8.87855 43.9998 6.43911 41.9062C8.18677 37.3914 10.1347 32.9495 12.4285 28.6896C17.0161 32.0939 21.094 34.333 21.5491 33.7141C22.0042 33.0951 18.6363 29.8 13.9941 26.3593L13.7939 26.2137C14.5949 24.8483 15.4323 23.483 16.3243 22.154C17.4348 20.4792 18.8002 18.95 20.1473 17.4572C21.9496 15.4729 24.2798 14.7993 26.8831 15.3819C35.2209 17.2387 41.01 22.0266 43.7407 30.237C44.2869 31.9118 43.7954 33.5502 42.9397 35.0612C42.3572 36.0807 41.72 37.0456 41.01 37.9558C36.6045 34.7335 32.7815 32.6582 32.3445 33.2408C31.9258 33.8233 34.966 36.8271 39.2442 40.0857Z" fill="white"/>
<path d="M82.9094 63.4227C82.1907 64.132 81.318 64.4867 80.2914 64.4867C79.2647 64.4867 78.392 64.132 77.6734 63.4227C76.964 62.7134 76.6094 61.8407 76.6094 60.8047C76.6094 59.7687 76.964 58.896 77.6734 58.1867C78.392 57.4774 79.2647 57.1227 80.2914 57.1227C81.318 57.1227 82.1907 57.4774 82.9094 58.1867C83.628 58.896 83.9874 59.7687 83.9874 60.8047C83.9874 61.8407 83.628 62.7134 82.9094 63.4227ZM80.2914 63.2967C80.9914 63.2967 81.5794 63.0587 82.0554 62.5827C82.5314 62.1067 82.7694 61.514 82.7694 60.8047C82.7694 60.0954 82.5314 59.5027 82.0554 59.0267C81.5794 58.5507 80.9914 58.3127 80.2914 58.3127C79.6007 58.3127 79.0174 58.5507 78.5414 59.0267C78.0654 59.5027 77.8274 60.0954 77.8274 60.8047C77.8274 61.514 78.0654 62.1067 78.5414 62.5827C79.0174 63.0587 79.6007 63.2967 80.2914 63.2967ZM94.4092 57.1227C95.2306 57.1227 95.8886 57.384 96.3832 57.9067C96.8779 58.42 97.1252 59.12 97.1252 60.0067V64.3047H95.9072V60.0767C95.9072 59.5074 95.7532 59.0687 95.4452 58.7607C95.1372 58.4434 94.7126 58.2847 94.1712 58.2847C93.5646 58.2847 93.0746 58.476 92.7012 58.8587C92.3279 59.232 92.1412 59.8107 92.1412 60.5947V64.3047H90.9232V57.3047H92.1412V58.3127C92.6359 57.5194 93.3919 57.1227 94.4092 57.1227ZM104.326 64.3047V54.0847H105.544V64.3047H104.326ZM113.518 56.0307C113.285 56.0307 113.089 55.9514 112.93 55.7927C112.771 55.634 112.692 55.4427 112.692 55.2187C112.692 54.9947 112.771 54.8034 112.93 54.6447C113.089 54.4767 113.285 54.3927 113.518 54.3927C113.742 54.3927 113.933 54.4767 114.092 54.6447C114.251 54.8034 114.33 54.9947 114.33 55.2187C114.33 55.4427 114.251 55.634 114.092 55.7927C113.933 55.9514 113.742 56.0307 113.518 56.0307ZM112.902 64.3047V57.3047H114.12V64.3047H112.902ZM124.964 57.1227C125.786 57.1227 126.444 57.384 126.938 57.9067C127.433 58.42 127.68 59.12 127.68 60.0067V64.3047H126.462V60.0767C126.462 59.5074 126.308 59.0687 126 58.7607C125.692 58.4434 125.268 58.2847 124.726 58.2847C124.12 58.2847 123.63 58.476 123.256 58.8587C122.883 59.232 122.696 59.8107 122.696 60.5947V64.3047H121.478V57.3047H122.696V58.3127C123.191 57.5194 123.947 57.1227 124.964 57.1227ZM135.735 61.3647C135.856 61.99 136.141 62.4754 136.589 62.8207C137.046 63.166 137.606 63.3387 138.269 63.3387C139.193 63.3387 139.865 62.998 140.285 62.3167L141.321 62.9047C140.639 63.9594 139.613 64.4867 138.241 64.4867C137.13 64.4867 136.225 64.1414 135.525 63.4507C134.834 62.7507 134.489 61.8687 134.489 60.8047C134.489 59.75 134.829 58.8727 135.511 58.1727C136.192 57.4727 137.074 57.1227 138.157 57.1227C139.183 57.1227 140.019 57.4867 140.663 58.2147C141.316 58.9334 141.643 59.8014 141.643 60.8187C141.643 60.996 141.629 61.178 141.601 61.3647H135.735ZM138.157 58.2707C137.503 58.2707 136.962 58.4574 136.533 58.8307C136.103 59.1947 135.837 59.6847 135.735 60.3007H140.411C140.308 59.638 140.047 59.134 139.627 58.7887C139.207 58.4434 138.717 58.2707 138.157 58.2707ZM163.353 57.3047H164.557V64.0107C164.557 65.0467 164.207 65.8494 163.507 66.4187C162.807 66.9974 161.967 67.2867 160.987 67.2867C160.203 67.2867 159.526 67.1374 158.957 66.8387C158.387 66.5494 157.958 66.1294 157.669 65.5787L158.733 64.9767C159.115 65.7607 159.876 66.1527 161.015 66.1527C161.743 66.1527 162.312 65.9614 162.723 65.5787C163.143 65.196 163.353 64.6734 163.353 64.0107V63.0167C162.737 63.95 161.859 64.4167 160.721 64.4167C159.722 64.4167 158.877 64.062 158.187 63.3527C157.496 62.6434 157.151 61.78 157.151 60.7627C157.151 59.7454 157.496 58.8867 158.187 58.1867C158.877 57.4774 159.722 57.1227 160.721 57.1227C161.869 57.1227 162.746 57.5847 163.353 58.5087V57.3047ZM159.083 62.5407C159.559 63.0167 160.151 63.2547 160.861 63.2547C161.57 63.2547 162.163 63.0167 162.639 62.5407C163.115 62.0647 163.353 61.472 163.353 60.7627C163.353 60.0627 163.115 59.4747 162.639 58.9987C162.163 58.5227 161.57 58.2847 160.861 58.2847C160.151 58.2847 159.559 58.5227 159.083 58.9987C158.607 59.4747 158.369 60.0627 158.369 60.7627C158.369 61.472 158.607 62.0647 159.083 62.5407ZM173.12 58.4807C173.521 57.6127 174.249 57.1787 175.304 57.1787V58.4527C174.707 58.4247 174.193 58.5834 173.764 58.9287C173.335 59.274 173.12 59.8294 173.12 60.5947V64.3047H171.902V57.3047H173.12V58.4807ZM187.521 63.4227C186.802 64.132 185.93 64.4867 184.903 64.4867C183.876 64.4867 183.004 64.132 182.285 63.4227C181.576 62.7134 181.221 61.8407 181.221 60.8047C181.221 59.7687 181.576 58.896 182.285 58.1867C183.004 57.4774 183.876 57.1227 184.903 57.1227C185.93 57.1227 186.802 57.4774 187.521 58.1867C188.24 58.896 188.599 59.7687 188.599 60.8047C188.599 61.8407 188.24 62.7134 187.521 63.4227ZM184.903 63.2967C185.603 63.2967 186.191 63.0587 186.667 62.5827C187.143 62.1067 187.381 61.514 187.381 60.8047C187.381 60.0954 187.143 59.5027 186.667 59.0267C186.191 58.5507 185.603 58.3127 184.903 58.3127C184.212 58.3127 183.629 58.5507 183.153 59.0267C182.677 59.5027 182.439 60.0954 182.439 60.8047C182.439 61.514 182.677 62.1067 183.153 62.5827C183.629 63.0587 184.212 63.2967 184.903 63.2967ZM198.825 64.4867C197.77 64.4867 196.893 64.1367 196.193 63.4367C195.493 62.7274 195.143 61.85 195.143 60.8047C195.143 59.7594 195.493 58.8867 196.193 58.1867C196.893 57.4774 197.77 57.1227 198.825 57.1227C199.516 57.1227 200.136 57.2907 200.687 57.6267C201.238 57.9534 201.648 58.3967 201.919 58.9567L200.897 59.5447C200.72 59.1714 200.444 58.8727 200.071 58.6487C199.707 58.4247 199.292 58.3127 198.825 58.3127C198.125 58.3127 197.537 58.5507 197.061 59.0267C196.594 59.5027 196.361 60.0954 196.361 60.8047C196.361 61.5047 196.594 62.0927 197.061 62.5687C197.537 63.0447 198.125 63.2827 198.825 63.2827C199.292 63.2827 199.712 63.1754 200.085 62.9607C200.458 62.7367 200.743 62.438 200.939 62.0647L201.975 62.6667C201.676 63.2174 201.247 63.6607 200.687 63.9967C200.127 64.3234 199.506 64.4867 198.825 64.4867ZM209.436 61.3647C209.557 61.99 209.842 62.4754 210.29 62.8207C210.747 63.166 211.307 63.3387 211.97 63.3387C212.894 63.3387 213.566 62.998 213.986 62.3167L215.022 62.9047C214.34 63.9594 213.314 64.4867 211.942 64.4867C210.831 64.4867 209.926 64.1414 209.226 63.4507C208.535 62.7507 208.19 61.8687 208.19 60.8047C208.19 59.75 208.53 58.8727 209.212 58.1727C209.893 57.4727 210.775 57.1227 211.858 57.1227C212.884 57.1227 213.72 57.4867 214.364 58.2147C215.017 58.9334 215.344 59.8014 215.344 60.8187C215.344 60.996 215.33 61.178 215.302 61.3647H209.436ZM211.858 58.2707C211.204 58.2707 210.663 58.4574 210.234 58.8307C209.804 59.1947 209.538 59.6847 209.436 60.3007H214.112C214.009 59.638 213.748 59.134 213.328 58.7887C212.908 58.4434 212.418 58.2707 211.858 58.2707ZM223.462 58.4807C223.863 57.6127 224.591 57.1787 225.646 57.1787V58.4527C225.049 58.4247 224.535 58.5834 224.106 58.9287C223.677 59.274 223.462 59.8294 223.462 60.5947V64.3047H222.244V57.3047H223.462V58.4807ZM232.954 56.0307C232.72 56.0307 232.524 55.9514 232.366 55.7927C232.207 55.634 232.128 55.4427 232.128 55.2187C232.128 54.9947 232.207 54.8034 232.366 54.6447C232.524 54.4767 232.72 54.3927 232.954 54.3927C233.178 54.3927 233.369 54.4767 233.528 54.6447C233.686 54.8034 233.766 54.9947 233.766 55.2187C233.766 55.4427 233.686 55.634 233.528 55.7927C233.369 55.9514 233.178 56.0307 232.954 56.0307ZM232.338 64.3047V57.3047H233.556V64.3047H232.338ZM241.768 61.3647C241.889 61.99 242.174 62.4754 242.622 62.8207C243.079 63.166 243.639 63.3387 244.302 63.3387C245.226 63.3387 245.898 62.998 246.318 62.3167L247.354 62.9047C246.672 63.9594 245.646 64.4867 244.274 64.4867C243.163 64.4867 242.258 64.1414 241.558 63.4507C240.867 62.7507 240.522 61.8687 240.522 60.8047C240.522 59.75 240.862 58.8727 241.544 58.1727C242.225 57.4727 243.107 57.1227 244.19 57.1227C245.216 57.1227 246.052 57.4867 246.696 58.2147C247.349 58.9334 247.676 59.8014 247.676 60.8187C247.676 60.996 247.662 61.178 247.634 61.3647H241.768ZM244.19 58.2707C243.536 58.2707 242.995 58.4574 242.566 58.8307C242.136 59.1947 241.87 59.6847 241.768 60.3007H246.444C246.341 59.638 246.08 59.134 245.66 58.7887C245.24 58.4434 244.75 58.2707 244.19 58.2707ZM258.179 58.4807H256.317V62.2747C256.317 62.62 256.382 62.8674 256.513 63.0167C256.653 63.1567 256.863 63.2314 257.143 63.2407C257.423 63.2407 257.768 63.2314 258.179 63.2127V64.3047C257.115 64.4447 256.335 64.3607 255.841 64.0527C255.346 63.7354 255.099 63.1427 255.099 62.2747V58.4807H253.713V57.3047H255.099V55.7087L256.317 55.3447V57.3047H258.179V58.4807Z" fill="white"/>
<path d="M83.64 36.38V32.84H86.8V38.36C85.3 39.4 82.92 40.16 80.96 40.16C76.68 40.16 73.46 37.08 73.46 33C73.46 28.92 76.76 25.88 81.2 25.88C83.3 25.88 85.52 26.68 86.96 27.96L84.88 30.52C83.88 29.58 82.46 28.98 81.18 28.98C78.92 28.98 77.22 30.72 77.22 33C77.22 35.3 78.94 37.04 81.22 37.04C81.92 37.04 82.8 36.8 83.64 36.38ZM102.383 40H98.2433L96.2033 36.12H96.1233H93.4833V40H89.8233V25.98H96.1233C99.8433 25.98 101.963 27.78 101.963 30.9C101.963 33.02 101.083 34.58 99.4633 35.42L102.383 40ZM93.4833 28.9V33.2H96.1433C97.6233 33.2 98.4833 32.44 98.4833 31.02C98.4833 29.64 97.6233 28.9 96.1433 28.9H93.4833ZM111.576 25.88C115.916 25.88 119.156 28.92 119.156 32.98C119.156 37.08 115.916 40.16 111.576 40.16C107.236 40.16 103.996 37.08 103.996 32.98C103.996 28.9 107.236 25.88 111.576 25.88ZM111.616 29C109.516 29 107.756 30.72 107.756 33C107.756 35.28 109.536 37.04 111.616 37.04C113.716 37.04 115.396 35.28 115.396 33C115.396 30.72 113.716 29 111.616 29ZM131.476 30.82C130.556 29.7 129.216 28.98 127.996 28.98C125.836 28.98 124.196 30.68 124.196 32.92C124.196 35.18 125.836 36.9 127.996 36.9C129.156 36.9 130.496 36.26 131.476 35.26L133.616 37.56C132.116 39.14 129.876 40.16 127.796 40.16C123.576 40.16 120.436 37.08 120.436 32.96C120.436 28.92 123.656 25.88 127.936 25.88C130.016 25.88 132.196 26.8 133.596 28.28L131.476 30.82ZM135.783 25.98H146.843V28.9H139.443V31.52H146.123V34.42L139.443 34.44V37.08H147.043V40H135.783V25.98ZM162.44 40H158.3L156.26 36.12H156.18H153.54V40H149.88V25.98H156.18C159.9 25.98 162.02 27.78 162.02 30.9C162.02 33.02 161.14 34.58 159.52 35.42L162.44 40ZM153.54 28.9V33.2H156.2C157.68 33.2 158.54 32.44 158.54 31.02C158.54 29.64 157.68 28.9 156.2 28.9H153.54ZM177.255 25.98L172.195 35.52V40H168.535V35.62L163.375 25.98H167.035L170.355 32L173.595 25.98H177.255ZM185.703 25.98H196.183L196.163 28.9H189.363V32.02H195.643V34.94H189.363V40H185.703V25.98ZM211.011 40H206.871L204.831 36.12H204.751H202.111V40H198.451V25.98H204.751C208.471 25.98 210.591 27.78 210.591 30.9C210.591 33.02 209.711 34.58 208.091 35.42L211.011 40ZM202.111 28.9V33.2H204.771C206.251 33.2 207.111 32.44 207.111 31.02C207.111 29.64 206.251 28.9 204.771 28.9H202.111ZM213.524 25.98H224.584V28.9H217.184V31.52H223.864V34.42L217.184 34.44V37.08H224.784V40H213.524V25.98ZM237.28 30.3C235.8 29.46 233.92 28.8 232.76 28.8C231.88 28.8 231.3 29.12 231.3 29.76C231.3 32.08 238.68 30.76 238.68 35.8C238.68 38.66 236.16 40.12 233.04 40.12C230.7 40.12 228.26 39.26 226.58 37.88L228 35.02C229.44 36.26 231.62 37.14 233.08 37.14C234.16 37.14 234.84 36.74 234.84 36C234.84 33.62 227.46 35.06 227.46 30.1C227.46 27.48 229.68 25.82 233.06 25.82C235.12 25.82 237.2 26.46 238.66 27.4L237.28 30.3ZM241.15 25.98H244.81V31.7H250.47V25.98H254.13V40H250.47V34.62H244.81V40H241.15V25.98Z" fill="white"/>
</g>
<defs>
<clipPath id="clip0_99_157">
<rect width="268" height="70" fill="white" transform="translate(0.5)"/>
</clipPath>
</defs>
</svg>
